# xmcd
#
# Track frame offsets: 
#        150
#        15403
#        26772
#        38673
#        52187
#        64123
#        74480
#        88030
#        103566
#        115185
#        125241
#        137577
#        148130
#        160612
#
# Disc length: 2323 seconds
#
# Revision: 3
# Processed by: cddbd v1.5.2PL0 Copyright (c) Steve Scherf et al.
# Submitted via: ExactAudioCopyFreeDBPlugin 1.0
#
DISCID=c609110e
DTITLE=Erma Franklin - Super Soul Sister
DYEAR=2003
DGENRE=Soul
TTITLE0=By the Time I Get to Phoenix
TTITLE1=Change My Thoughts from You
TTITLE2=Light My Fire
TTITLE3=You've Been Cancelled
TTITLE4=For Once in My Life
TTITLE5=Can't See My Way
TTITLE6=Hold On, I'm Coming
TTITLE7=Saving My Love for You
TTITLE8=Son of a Preacher Man
TTITLE9=Gotta Find Me a Lover (24 Hours a Day)
TTITLE10=Baby I Love You
TTITLE11=Whispers (Getting Louder)
TTITLE12=Higher and Higher
TTITLE13=(I Get The) Sweetest Feelin'
EXTD=YEAR: 1968
EXTT0=
EXTT1=
EXTT2=
EXTT3=
EXTT4=
EXTT5=
EXTT6=
EXTT7=
EXTT8=
EXTT9=
EXTT10=
EXTT11=
EXTT12=
EXTT13=
PLAYORDER=
